<svg width="98" height="173" viewBox="0 0 98 173" fill="none" xmlns="http://www.w3.org/2000/svg">
<path d="M68.4372 170.036C76.4983 169.176 87.3263 167.783 95.0333 165.59M95.0333 165.59C95.9214 165.337 92.1415 159.53 91.9446 159.277C87.6314 153.723 82.7238 148.904 77.6166 144.1M95.0333 165.59C51.2708 160.533 19.6855 129.129 18.9666 97.7304C18.8953 94.6183 18.821 91.2311 19.0485 87.8519M19.0485 87.8519C19.4107 82.4705 20.5383 77.1094 23.6623 72.9126C26.5457 69.0395 31.9333 65.2086 36.945 65.8437C46.3071 67.0304 49.0063 79.2522 42.649 85.757C37.0626 91.4732 25.3334 92.6503 19.0485 87.8519ZM19.0485 87.8519C18.9159 87.7507 18.7858 87.6469 18.6581 87.5403C-12.1441 61.8234 5.55577 18.0908 34.4543 2.50038" stroke="#A6D8D2" stroke-width="5" stroke-miterlimit="1.5" stroke-linecap="round" stroke-linejoin="round"/>
</svg>
